<svg height="1000" width="1000">
<rect width="1000" height="1000" style="fill:rgb(255,255,255); stroke-width:0; stroke:rgb(0,0,0)" />
<circle cx="314.8" cy="406.26" r="1" stroke="black" stroke-width="3"/>
<circle cx="314.8" cy="406.26" r="23.6879" stroke="#A52A2A" stroke-width="0" fill="#ff0000" fill-opacity="0.4"/>
<circle cx="265.84" cy="500.72" r="1" stroke="black" stroke-width="3"/>
<circle cx="265.84" cy="500.72" r="18.6008" stroke="#A52A2A" stroke-width="0" fill="#ff0000" fill-opacity="0.4"/>
<circle cx="295.94" cy="362.8" r="1" stroke="black" stroke-width="3"/>
<circle cx="295.94" cy="362.8" r="6.86706" stroke="#A52A2A" stroke-width="0" fill="#ff0000" fill-opacity="0.4"/>
<circle cx="293.76" cy="349.24" r="1" stroke="black" stroke-width="3"/>
<circle cx="293.76" cy="349.24" r="6.86706" stroke="#A52A2A" stroke-width="0" fill="#ff0000" fill-opacity="0.4"/>
<circle cx="246.8" cy="468.76" r="1" stroke="black" stroke-width="3"/>
<circle cx="246.8" cy="468.76" r="18.6008" stroke="#A52A2A" stroke-width="0" fill="#ff0000" fill-opacity="0.4"/>
<circle cx="554.88" cy="257.86" r="1" stroke="black" stroke-width="3"/>
<circle cx="554.88" cy="257.86" r="37.9796" stroke="#A52A2A" stroke-width="0" fill="#ff0000" fill-opacity="0.4"/>
<circle cx="574.86" cy="399.16" r="1" stroke="black" stroke-width="3"/>
<circle cx="574.86" cy="399.16" r="30.8897" stroke="#A52A2A" stroke-width="0" fill="#ff0000" fill-opacity="0.4"/>
<circle cx="515.42" cy="416" r="1" stroke="black" stroke-width="3"/>
<circle cx="515.42" cy="416" r="30.8897" stroke="#A52A2A" stroke-width="0" fill="#ff0000" fill-opacity="0.4"/>
<circle cx="547.3" cy="333.44" r="1" stroke="black" stroke-width="3"/>
<circle cx="547.3" cy="333.44" r="35.6324" stroke="#A52A2A" stroke-width="0" fill="#ff0000" fill-opacity="0.4"/>
<circle cx="434.54" cy="448.58" r="1" stroke="black" stroke-width="3"/>
<circle cx="434.54" cy="448.58" r="43.5977" stroke="#A52A2A" stroke-width="0" fill="#ff0000" fill-opacity="0.4"/>
<line x1="437.133" y1="338.335" x2="536.38" y2="376.658" style="stroke:rgb(0,0,0);stroke-width:1" />
<line x1="416.844" y1="282.186" x2="419.251" y2="320.823" style="stroke:rgb(0,0,0);stroke-width:1" />
<line x1="419.251" y1="320.823" x2="437.133" y2="338.335" style="stroke:rgb(0,0,0);stroke-width:1" />
<line x1="419.251" y1="320.823" x2="407.155" y2="337.965" style="stroke:rgb(0,0,0);stroke-width:1" />
<line x1="407.155" y1="337.965" x2="405.129" y2="341.238" style="stroke:rgb(0,0,0);stroke-width:1" />
<line x1="536.38" y1="376.658" x2="695.11" y2="310.094" style="stroke:rgb(0,0,0);stroke-width:1" />
<line x1="416.844" y1="282.186" x2="695.11" y2="310.094" style="stroke:rgb(0,0,0);stroke-width:1" />
<line x1="252.995" y1="407.259" x2="405.129" y2="341.238" style="stroke:rgb(0,0,0);stroke-width:1" />
<line x1="181.726" y1="374.207" x2="407.155" y2="337.965" style="stroke:rgb(0,0,0);stroke-width:1" />
<line x1="181.726" y1="374.207" x2="252.995" y2="407.259" style="stroke:rgb(0,0,0);stroke-width:1" />
<line x1="252.995" y1="407.259" x2="300.189" y2="458.605" style="stroke:rgb(0,0,0);stroke-width:1" />
<line x1="300.189" y1="458.605" x2="353.823" y2="486.405" style="stroke:rgb(0,0,0);stroke-width:1" />
<line x1="405.129" y1="341.238" x2="353.823" y2="486.405" style="stroke:rgb(0,0,0);stroke-width:1" />
<line x1="437.133" y1="338.335" x2="735.061" y2="1077.94" style="stroke:rgb(0,0,0);stroke-width:1" />
<line x1="536.38" y1="376.658" x2="735.061" y2="1077.94" style="stroke:rgb(0,0,0);stroke-width:1" />
<line x1="-311.826" y1="-1800" x2="416.844" y2="282.186" style="stroke:rgb(0,0,0);stroke-width:1" />
<line x1="-1800" y1="-404.423" x2="181.726" y2="374.207" style="stroke:rgb(0,0,0);stroke-width:1" />
<line x1="-1800" y1="1709.78" x2="300.189" y2="458.605" style="stroke:rgb(0,0,0);stroke-width:1" />
<line x1="353.823" y1="486.405" x2="883.443" y2="2200" style="stroke:rgb(0,0,0);stroke-width:1" />
<line x1="735.061" y1="1077.94" x2="1130.24" y2="2200" style="stroke:rgb(0,0,0);stroke-width:1" />
<line x1="695.11" y1="310.094" x2="2200" y2="97.3005" style="stroke:rgb(0,0,0);stroke-width:1" />
</svg>
